<svg xmlns="http://www.w3.org/2000/svg" viewBox="0 0 800 800" width="800" height="800">
<defs><linearGradient id="l34" x1="0" y1="0" x2="0" y2="1"><stop offset="0" stop-color="#ffffff" stop-opacity="1"/><stop offset="1" stop-color="#ddd6ea" stop-opacity="1"/></linearGradient><radialGradient id="r35" cx="0.5" cy="0.5" r="0.5"><stop offset="0" stop-color="#000" stop-opacity="0.28"/><stop offset="1" stop-color="#000" stop-opacity="0"/></radialGradient><linearGradient id="l36" x1="0" y1="0" x2="1" y2="1"><stop offset="0" stop-color="#ffffff" stop-opacity="1"/><stop offset="1" stop-color="#cfc8de" stop-opacity="1"/></linearGradient><linearGradient id="l37" x1="0" y1="0" x2="1" y2="0"><stop offset="0" stop-color="#ffffff" stop-opacity="1"/><stop offset="1" stop-color="#d4cde3" stop-opacity="1"/></linearGradient><linearGradient id="l38" x1="0" y1="0" x2="1" y2="1"><stop offset="0" stop-color="#ffffff" stop-opacity="1"/><stop offset="1" stop-color="#cfc8de" stop-opacity="1"/></linearGradient><linearGradient id="l39" x1="0" y1="0" x2="1" y2="0"><stop offset="0" stop-color="#ffffff" stop-opacity="1"/><stop offset="1" stop-color="#d4cde3" stop-opacity="1"/></linearGradient><radialGradient id="r40" cx="0.5" cy="0.38" r="0.75"><stop offset="0" stop-color="#ffffff" stop-opacity="1"/><stop offset="0.55" stop-color="#f0e6ff" stop-opacity="1"/><stop offset="1" stop-color="#ddd4eb" stop-opacity="1"/></radialGradient><linearGradient id="l41" x1="0" y1="0" x2="0" y2="1"><stop offset="0" stop-color="#000" stop-opacity="0"/><stop offset="1" stop-color="#000" stop-opacity="0.06"/></linearGradient></defs>
<rect width="800" height="800" fill="url(#r40)"/>
<rect y="560" width="800" height="240" fill="url(#l41)"/>
<ellipse cx="400" cy="640" rx="250" ry="30" fill="url(#r35)"/><path d="M250 420 Q250 380 290 380 L510 380 Q550 380 550 420 L550 560 Q550 620 490 620 L310 620 Q250 620 250 560 Z" fill="url(#l34)" stroke="#cdc5dc"/><rect x="250" y="410" width="300" height="6" fill="#bdb4cf"/><path d="M262 300 Q262 250 300 250 L500 250 Q538 250 538 300 L538 380 L262 380 Z" fill="#f6f3fb" stroke="#cdc5dc" transform="rotate(-12 262 380)"/><circle cx="400" cy="520" r="6" fill="#7bd88f"/><text x="400" y="590" font-family="Inter, 'Segoe UI', Roboto, Arial, sans-serif" font-size="22" font-weight="700" fill="#8b84a0" text-anchor="middle" letter-spacing="2" >AirBeat</text><g transform="translate(330 330) scale(1 1)"><ellipse cx="0" cy="0" rx="46" ry="52" fill="url(#l36)"/><rect x="-14" y="30" width="28" height="110" rx="14" fill="url(#l37)"/><ellipse cx="-14" cy="-6" rx="22" ry="26" fill="#3b3550"/><ellipse cx="-20" cy="-14" rx="6" ry="8" fill="#fff" opacity=".4"/></g><g transform="translate(470 330) scale(-1 1)"><ellipse cx="0" cy="0" rx="46" ry="52" fill="url(#l38)"/><rect x="-14" y="30" width="28" height="110" rx="14" fill="url(#l39)"/><ellipse cx="-14" cy="-6" rx="22" ry="26" fill="#3b3550"/><ellipse cx="-20" cy="-14" rx="6" ry="8" fill="#fff" opacity=".4"/></g>
</svg>