<svg xmlns="http://www.w3.org/2000/svg" viewBox="-134 0 1068 800" width="1068" height="800">
<defs><radialGradient id="r116" cx="0.5" cy="0.5" r="0.5"><stop offset="0" stop-color="#000" stop-opacity="0.35"/><stop offset="1" stop-color="#000" stop-opacity="0"/></radialGradient><linearGradient id="l117" x1="0" y1="0" x2="1" y2="0"><stop offset="0" stop-color="#fff" stop-opacity="0.18"/><stop offset="0.12" stop-color="#fff" stop-opacity="0"/><stop offset="0.9" stop-color="#000" stop-opacity="0"/><stop offset="1" stop-color="#000" stop-opacity="0.15"/></linearGradient><radialGradient id="r118" cx="0.5" cy="0.38" r="0.75"><stop offset="0" stop-color="#ffffff" stop-opacity="1"/><stop offset="0.55" stop-color="#ffe1d6" stop-opacity="1"/><stop offset="1" stop-color="#ebcfc5" stop-opacity="1"/></radialGradient><linearGradient id="l119" x1="0" y1="0" x2="0" y2="1"><stop offset="0" stop-color="#000" stop-opacity="0"/><stop offset="1" stop-color="#000" stop-opacity="0.06"/></linearGradient></defs>
<rect x="-134" width="1068" height="800" fill="url(#r118)"/>
<rect x="-134" y="560" width="1068" height="240" fill="url(#l119)"/>
<ellipse cx="430" cy="588" rx="225" ry="18" fill="url(#r116)"/><path d="M260 140 L226 154 L226 594 L260 580 Z" fill="#842519"/><path d="M226 594 L260 580 L560 580 L552 590 Z" fill="#f4efe6"/><rect x="260" y="140" width="300" height="440" rx="4" fill="#b6382a"/><rect x="260" y="140" width="300" height="440" rx="4" fill="url(#l117)"/><circle cx="410" cy="430" r="70" fill="#f7d36b"/><circle cx="410" cy="430" r="54" fill="#e9893a"/><circle cx="392" cy="418" r="8" fill="#5c8a3a"/><circle cx="425" cy="440" r="7" fill="#5c8a3a"/><circle cx="410" cy="410" r="5" fill="#fff6dd"/><text x="410" y="260" font-family="Georgia, 'Times New Roman', serif" font-size="44" font-weight="800" fill="#fff" text-anchor="middle" letter-spacing="0" >The Indian</text><text x="410" y="310" font-family="Georgia, 'Times New Roman', serif" font-size="44" font-weight="800" fill="#fff" text-anchor="middle" letter-spacing="0" >Kitchen</text><text x="410" y="380" font-family="Inter, 'Segoe UI', Roboto, Arial, sans-serif" font-size="20" font-weight="500" fill="#fff" text-anchor="middle" letter-spacing="0" opacity=".9">500 Home Recipes</text><text x="410" y="540" font-family="Inter, 'Segoe UI', Roboto, Arial, sans-serif" font-size="18" font-weight="700" fill="#fff" text-anchor="middle" letter-spacing="3" opacity=".9">SAFFRON BOOKS</text>
</svg>