<svg xmlns="http://www.w3.org/2000/svg" viewBox="-134 0 1068 800" width="1068" height="800">
<defs><linearGradient id="l1" x1="0" y1="0" x2="1" y2="1"><stop offset="0" stop-color="#5b7cff" stop-opacity="1"/><stop offset="0.5" stop-color="#3a2f9e" stop-opacity="1"/><stop offset="1" stop-color="#0d1240" stop-opacity="1"/></linearGradient><radialGradient id="r2" cx="0.5" cy="0.5" r="0.5"><stop offset="0" stop-color="#000" stop-opacity="0.28"/><stop offset="1" stop-color="#000" stop-opacity="0"/></radialGradient><linearGradient id="l3" x1="0" y1="0" x2="1" y2="1"><stop offset="0" stop-color="#565f85" stop-opacity="1"/><stop offset="0.5" stop-color="#1d2a5c" stop-opacity="1"/><stop offset="1" stop-color="#141d40" stop-opacity="1"/></linearGradient><linearGradient id="l4" x1="0" y1="0" x2="1" y2="1"><stop offset="0" stop-color="#fff" stop-opacity="0.18"/><stop offset="0.4" stop-color="#fff" stop-opacity="0"/><stop offset="1" stop-color="#fff" stop-opacity="0.05"/></linearGradient><radialGradient id="r5" cx="0.35" cy="0.35" r="0.7"><stop offset="0" stop-color="#3d4a6b" stop-opacity="1"/><stop offset="0.7" stop-color="#0c0d12" stop-opacity="1"/></radialGradient><radialGradient id="r6" cx="0.35" cy="0.35" r="0.7"><stop offset="0" stop-color="#3d4a6b" stop-opacity="1"/><stop offset="0.7" stop-color="#0c0d12" stop-opacity="1"/></radialGradient><radialGradient id="r7" cx="0.35" cy="0.35" r="0.7"><stop offset="0" stop-color="#3d4a6b" stop-opacity="1"/><stop offset="0.7" stop-color="#0c0d12" stop-opacity="1"/></radialGradient><linearGradient id="l8" x1="0" y1="0" x2="1" y2="1"><stop offset="0" stop-color="#565f85" stop-opacity="1"/><stop offset="0.5" stop-color="#1d2a5c" stop-opacity="1"/><stop offset="1" stop-color="#141d40" stop-opacity="1"/></linearGradient><radialGradient id="r9" cx="0.5" cy="0.38" r="0.75"><stop offset="0" stop-color="#ffffff" stop-opacity="1"/><stop offset="0.55" stop-color="#dbe7ff" stop-opacity="1"/><stop offset="1" stop-color="#c9d5eb" stop-opacity="1"/></radialGradient><linearGradient id="l10" x1="0" y1="0" x2="0" y2="1"><stop offset="0" stop-color="#000" stop-opacity="0"/><stop offset="1" stop-color="#000" stop-opacity="0.06"/></linearGradient></defs>
<rect x="-134" width="1068" height="800" fill="url(#r9)"/>
<rect x="-134" y="560" width="1068" height="240" fill="url(#l10)"/>
<ellipse cx="400" cy="650" rx="230" ry="27.599999999999998" fill="url(#r2)"/><g transform="rotate(-9 415 355)"><rect x="300" y="120" width="230" height="470" rx="29.900000000000002" fill="url(#l3)"/><rect x="302" y="122" width="226" height="466" rx="27.900000000000002" fill="none" stroke="#fff" stroke-opacity=".25" stroke-width="2"/><rect x="300" y="120" width="230" height="470" rx="29.900000000000002" fill="url(#l4)"/><rect x="322" y="142" width="96.6" height="150" rx="26" fill="#17224a" stroke="#fff" stroke-opacity=".2"/><circle cx="370.3" cy="172" r="18" fill="#15161b"/><circle cx="370.3" cy="172" r="11.16" fill="url(#r5)"/><circle cx="365.8" cy="167.5" r="3.2399999999999998" fill="#fff" opacity=".55"/><circle cx="370.3" cy="218" r="18" fill="#15161b"/><circle cx="370.3" cy="218" r="11.16" fill="url(#r6)"/><circle cx="365.8" cy="213.5" r="3.2399999999999998" fill="#fff" opacity=".55"/><circle cx="370.3" cy="264" r="18" fill="#15161b"/><circle cx="370.3" cy="264" r="11.16" fill="url(#r7)"/><circle cx="365.8" cy="259.5" r="3.2399999999999998" fill="#fff" opacity=".55"/><text x="415" y="530" font-family="Inter, 'Segoe UI', Roboto, Arial, sans-serif" font-size="14" font-weight="600" fill="#fff" text-anchor="middle" letter-spacing="0" ></text></g><g transform="rotate(6 525 385)"><rect x="410" y="150" width="230" height="470" rx="29.900000000000002" fill="url(#l8)"/><rect x="412" y="152" width="226" height="466" rx="27.900000000000002" fill="none" stroke="#fff" stroke-opacity=".25" stroke-width="2"/><rect x="419" y="159" width="212" height="452" rx="21.900000000000002" fill="url(#l1)"/><circle cx="525" cy="176" r="6" fill="#0b0b12"/><text x="525" y="260" font-family="Inter, 'Segoe UI', Roboto, Arial, sans-serif" font-size="55.199999999999996" font-weight="300" fill="#fff" text-anchor="middle" letter-spacing="0" >10:08</text><text x="525" y="290" font-family="Inter, 'Segoe UI', Roboto, Arial, sans-serif" font-size="13.799999999999999" font-weight="500" fill="#fff" text-anchor="middle" letter-spacing="0" opacity=".85">Wednesday, 8 October</text><rect x="490.5" y="594" width="69" height="5" rx="2.5" fill="#fff" opacity=".7"/><path d="M419 408.5 Q 525 347.4 631 432 L 631 581.1 Q 631 611 601.1 611 L 448.9 611 Q 419 611 419 581.1 Z" fill="#fff" opacity=".08"/></g>
</svg>