<svg xmlns="http://www.w3.org/2000/svg" viewBox="-134 0 1068 800" width="1068" height="800">
<defs><linearGradient id="l77" x1="0" y1="0" x2="1" y2="1"><stop offset="0" stop-color="#4cc985" stop-opacity="1"/><stop offset="0.6" stop-color="#22a062" stop-opacity="1"/><stop offset="1" stop-color="#157a48" stop-opacity="1"/></linearGradient><linearGradient id="l78" x1="0" y1="0" x2="1" y2="0"><stop offset="0" stop-color="#ffffff" stop-opacity="0.16"/><stop offset="1" stop-color="#ffffff" stop-opacity="0"/></linearGradient><radialGradient id="r79" cx="0.5" cy="0.5" r="0.5"><stop offset="0" stop-color="#000" stop-opacity="0.28"/><stop offset="1" stop-color="#000" stop-opacity="0"/></radialGradient><linearGradient id="l80" x1="0" y1="0" x2="0" y2="1"><stop offset="0" stop-color="#ffffff" stop-opacity="1"/><stop offset="1" stop-color="#d9e2dc" stop-opacity="1"/></linearGradient><radialGradient id="r81" cx="0.5" cy="0.38" r="0.75"><stop offset="0" stop-color="#ffffff" stop-opacity="1"/><stop offset="0.55" stop-color="#e6f4ea" stop-opacity="1"/><stop offset="1" stop-color="#d4e0d7" stop-opacity="1"/></radialGradient><linearGradient id="l82" x1="0" y1="0" x2="0" y2="1"><stop offset="0" stop-color="#000" stop-opacity="0"/><stop offset="1" stop-color="#000" stop-opacity="0.06"/></linearGradient></defs>
<rect x="-134" width="1068" height="800" fill="url(#r81)"/>
<rect x="-134" y="560" width="1068" height="240" fill="url(#l82)"/>
<ellipse cx="410" cy="572" rx="320" ry="24" fill="url(#r79)"/><path d="M128 488 L132 372 Q136 330 176 318 Q214 334 262 336 Q314 334 344 306 L378 274 Q400 254 428 266 L446 290 Q520 356 626 394 Q704 420 708 470 L708 490 Z" fill="url(#l77)"/><clipPath id="shoeclip"><path d="M128 488 L132 372 Q136 330 176 318 Q214 334 262 336 Q314 334 344 306 L378 274 Q400 254 428 266 L446 290 Q520 356 626 394 Q704 420 708 470 L708 490 Z"/></clipPath><g clip-path="url(#shoeclip)"><path d="M250 470 Q262 420 258 360" stroke="#fff" stroke-opacity=".12" stroke-width="3" fill="none"/><path d="M276 470 Q288 420 284 360" stroke="#fff" stroke-opacity=".12" stroke-width="3" fill="none"/><path d="M302 470 Q314 420 310 360" stroke="#fff" stroke-opacity=".12" stroke-width="3" fill="none"/><path d="M328 470 Q340 420 336 360" stroke="#fff" stroke-opacity=".12" stroke-width="3" fill="none"/><path d="M354 470 Q366 420 362 360" stroke="#fff" stroke-opacity=".12" stroke-width="3" fill="none"/><path d="M380 470 Q392 420 388 360" stroke="#fff" stroke-opacity=".12" stroke-width="3" fill="none"/><path d="M406 470 Q418 420 414 360" stroke="#fff" stroke-opacity=".12" stroke-width="3" fill="none"/><path d="M432 470 Q444 420 440 360" stroke="#fff" stroke-opacity=".12" stroke-width="3" fill="none"/><path d="M458 470 Q470 420 466 360" stroke="#fff" stroke-opacity=".12" stroke-width="3" fill="none"/><path d="M484 470 Q496 420 492 360" stroke="#fff" stroke-opacity=".12" stroke-width="3" fill="none"/><path d="M510 470 Q522 420 518 360" stroke="#fff" stroke-opacity=".12" stroke-width="3" fill="none"/><path d="M536 470 Q548 420 544 360" stroke="#fff" stroke-opacity=".12" stroke-width="3" fill="none"/><path d="M562 470 Q574 420 570 360" stroke="#fff" stroke-opacity=".12" stroke-width="3" fill="none"/><path d="M588 470 Q600 420 596 360" stroke="#fff" stroke-opacity=".12" stroke-width="3" fill="none"/><rect x="120" y="250" width="600" height="250" fill="url(#l78)"/><path d="M120 500 L120 360 Q170 340 214 352 Q236 420 226 500 Z" fill="#0f5b35"/><path d="M560 386 Q676 408 712 470 L712 500 L548 500 Q530 440 560 386 Z" fill="#7fe0aa"/></g><path d="M176 318 Q214 334 262 336 Q314 334 344 306 Q300 316 262 318 Q210 318 176 318 Z" fill="#0b3d24"/><path d="M146 330 L132 286 Q130 272 144 272 L166 278 Q174 296 176 318 Z" fill="#157a48"/><path d="M384 270 Q402 236 428 246 L446 290 L428 266 Q404 256 384 270 Z" fill="#0f5b35"/><path d="M262 468 Q390 388 590 358 Q630 352 640 360 Q470 400 300 482 Z" fill="#ffffff"/><path d="M338 344 L374 316" stroke="#ffffff" stroke-width="9" stroke-linecap="round"/><circle cx="336" cy="348" r="5" fill="#0f5b35"/><circle cx="376" cy="314" r="5" fill="#0f5b35"/><path d="M368 358 L404 330" stroke="#ffffff" stroke-width="9" stroke-linecap="round"/><circle cx="366" cy="362" r="5" fill="#0f5b35"/><circle cx="406" cy="328" r="5" fill="#0f5b35"/><path d="M398 372 L434 344" stroke="#ffffff" stroke-width="9" stroke-linecap="round"/><circle cx="396" cy="376" r="5" fill="#0f5b35"/><circle cx="436" cy="342" r="5" fill="#0f5b35"/><path d="M428 386 L464 358" stroke="#ffffff" stroke-width="9" stroke-linecap="round"/><circle cx="426" cy="390" r="5" fill="#0f5b35"/><circle cx="466" cy="356" r="5" fill="#0f5b35"/><path d="M458 400 L494 372" stroke="#ffffff" stroke-width="9" stroke-linecap="round"/><circle cx="456" cy="404" r="5" fill="#0f5b35"/><circle cx="496" cy="370" r="5" fill="#0f5b35"/><path d="M108 488 Q100 548 150 550 L668 546 Q724 540 722 492 L716 466 Q706 486 660 490 Z" fill="url(#l80)"/><path d="M150 512 Q400 520 712 500" fill="none" stroke="#22a062" stroke-width="5" opacity=".7"/><path d="M104 528 Q110 552 150 552 L668 548 Q712 546 722 516 L722 528 Q716 560 668 562 L150 566 Q106 566 104 540 Z" fill="#2b3a33"/><rect x="150" y="532" width="16" height="10" rx="3" fill="#1d2722"/><rect x="181" y="532" width="16" height="10" rx="3" fill="#1d2722"/><rect x="212" y="532" width="16" height="10" rx="3" fill="#1d2722"/><rect x="243" y="532" width="16" height="10" rx="3" fill="#1d2722"/><rect x="274" y="532" width="16" height="10" rx="3" fill="#1d2722"/><rect x="305" y="532" width="16" height="10" rx="3" fill="#1d2722"/><rect x="336" y="532" width="16" height="10" rx="3" fill="#1d2722"/><rect x="367" y="532" width="16" height="10" rx="3" fill="#1d2722"/><rect x="398" y="532" width="16" height="10" rx="3" fill="#1d2722"/><rect x="429" y="532" width="16" height="10" rx="3" fill="#1d2722"/><rect x="460" y="532" width="16" height="10" rx="3" fill="#1d2722"/><rect x="491" y="532" width="16" height="10" rx="3" fill="#1d2722"/><rect x="522" y="532" width="16" height="10" rx="3" fill="#1d2722"/><rect x="553" y="532" width="16" height="10" rx="3" fill="#1d2722"/><rect x="584" y="532" width="16" height="10" rx="3" fill="#1d2722"/><rect x="615" y="532" width="16" height="10" rx="3" fill="#1d2722"/><rect x="646" y="532" width="16" height="10" rx="3" fill="#1d2722"/><rect x="677" y="532" width="16" height="10" rx="3" fill="#1d2722"/><path d="M210 360 Q240 352 270 356" stroke="#fff" stroke-opacity=".35" stroke-width="6" fill="none" stroke-linecap="round"/><text x="186" y="430" font-family="Inter, 'Segoe UI', Roboto, Arial, sans-serif" font-size="16" font-weight="800" fill="#ffffff" text-anchor="middle" letter-spacing="3" transform="rotate(-84 186 430)" opacity=".85">STRIDE</text>
</svg>